<svg width="18" height="20" viewBox="0 0 18 20" fill="none" xmlns="http://www.w3.org/2000/svg">
<path d="M15.502 7C15.8396 7 16.1661 6.95219 16.475 6.86298C16.4929 7.07425 16.502 7.28801 16.502 7.50391V11.5024L17.9203 14.6625C17.9752 14.7848 18.0036 14.9174 18.0036 15.0515C18.0036 15.5762 17.5783 16.0015 17.0536 16.0015H0.954143C0.820353 16.0015 0.688083 15.9733 0.565973 15.9186C0.0871029 15.7042 -0.127317 15.1422 0.0870629 14.6633L1.50196 11.5028L1.50206 7.49099L1.50648 7.24107C1.64555 3.21035 4.95783 0.00390625 9.00195 0.00390625C10.4453 0.00390625 11.7935 0.411616 12.9375 1.11815C12.357 1.74286 12.002 2.57997 12.002 3.5C12.002 5.433 13.569 7 15.502 7ZM11.9603 17.003C11.7216 18.4211 10.488 19.5015 9.00195 19.5015C7.51595 19.5015 6.28232 18.4211 6.04368 17.003H11.9603ZM15.502 6C16.8827 6 18.002 4.88071 18.002 3.5C18.002 2.11929 16.8827 0.999996 15.502 0.999996C14.1213 0.999996 13.002 2.11929 13.002 3.5C13.002 4.88071 14.1213 6 15.502 6Z" fill="#212121"/>
</svg>
