<svg width="21" height="21" viewBox="0 0 21 21" fill="none" xmlns="http://www.w3.org/2000/svg">
<path d="M14.7309 1.11856C16.1283 -0.279043 18.3941 -0.279112 19.7917 1.11841C21.1891 2.51582 21.1891 4.78144 19.7918 6.17892L18.9004 7.07047C20.165 8.34009 20.1634 10.3944 18.8957 11.662L17.1123 13.4454C16.8194 13.7383 16.3446 13.7383 16.0517 13.4454C15.7588 13.1525 15.7588 12.6777 16.0517 12.3848L17.8351 10.6014C18.5169 9.91949 18.5185 8.81499 17.8398 8.13119L7.84175 18.1304C7.4353 18.5369 6.92402 18.8227 6.36482 18.9558L1.76357 20.0513C1.51021 20.1117 1.24369 20.0362 1.05952 19.8521C0.875363 19.6679 0.799933 19.4014 0.860253 19.148L1.95584 14.5466C2.08894 13.9875 2.37454 13.4764 2.78087 13.07L14.7309 1.11856Z" fill="#212121"/>
</svg>
