<svg width="19" height="19" viewBox="0 0 19 19" fill="none" xmlns="http://www.w3.org/2000/svg">
<path d="M8.13965 0.595703C12.1842 0.595703 15.4629 3.83531 15.4629 7.83155C15.4629 9.56007 15.0217 11.1131 13.9982 12.3576L16.271 14.6195L18.7763 17.1323C19.0722 17.4246 19.0722 18.1757 18.7763 18.468C18.5074 18.7338 17.7796 18.778 17.4831 18.5606L14.9578 16.1379L12.4326 13.5703C11.1731 14.5815 9.88904 15.0674 8.13965 15.0674C4.09514 15.0674 0.816406 11.8278 0.816406 7.83155C0.816406 3.83531 4.09514 0.595703 8.13965 0.595703ZM8.13965 2.85761C4.90732 3.30999 3.54368 4.66713 3.08913 7.83155C3.54368 11.0005 4.90732 12.3576 8.08913 12.81C11.271 12.3576 12.6346 11.2143 13.0891 7.8338C12.4326 4.42857 11.271 3.30999 8.13965 2.85761Z" fill="black"/>
</svg>
