<svg width="21" height="17" viewBox="0 0 21 17" fill="none" xmlns="http://www.w3.org/2000/svg">
<path d="M5.08126 1.09308L1.08549 5.09308L1.00235 5.18733C0.697531 5.57978 0.725561 6.147 1.08624 6.50729L1.18049 6.59043C1.57294 6.89521 2.14016 6.86721 2.50045 6.50654L4.79397 4.20981L4.79398 15.8005L4.80071 15.9171C4.85847 16.4144 5.28114 16.8005 5.79398 16.8005L5.9106 16.7937C6.40794 16.736 6.79398 16.3133 6.79398 15.8005L6.79397 4.21681L9.08737 6.50738L9.18157 6.59051C9.57407 6.89531 10.1413 6.86721 10.5016 6.50645C10.8918 6.11567 10.8914 5.48251 10.5007 5.09224L6.49539 1.09224L6.40113 1.00912C6.00868 0.704368 5.44152 0.732428 5.08126 1.09308ZM15.793 0.802978L15.6764 0.809708C15.179 0.867478 14.793 1.29015 14.793 1.80298V13.3828L12.4998 11.0923L12.4055 11.0092C12.0131 10.7043 11.4459 10.7323 11.0856 11.093C10.6952 11.4837 10.6955 12.1169 11.0862 12.5072L15.09 16.5072L15.1842 16.5903C15.5767 16.8952 16.1439 16.8672 16.5042 16.5065L20.5004 12.5065L20.5836 12.4123C20.8884 12.0198 20.8604 11.4526 20.4998 11.0923L20.4055 11.0092C20.0131 10.7043 19.4459 10.7323 19.0856 11.093L16.793 13.3868V1.80298L16.7863 1.68636C16.7285 1.18902 16.3058 0.802978 15.793 0.802978Z" fill="#212121"/>
</svg>
