<svg width="125" height="134" viewBox="0 0 125 134" fill="none" xmlns="http://www.w3.org/2000/svg">
<path d="M124.831 125.682C124.831 121.273 121.342 121.914 117.039 121.914L62.4934 121.914L7.95573 121.914C3.65251 121.914 0.164062 121.273 0.164063 125.682C0.164063 130.091 3.65251 133.665 7.95573 133.665H117.039C121.342 133.665 124.831 130.091 124.831 125.682Z" fill="black"/>
<path d="M0.164062 109.715L0.164062 125.682C0.164062 130.091 3.65251 133.665 7.95573 133.665C12.2589 133.665 15.7474 130.091 15.7474 125.682L15.7474 109.715C15.7474 108.119 15.8671 108.119 8.07947 108.119C0.291794 108.119 0.164062 108.119 0.164062 109.715Z" fill="black"/>
<path d="M109.25 109.715V125.682C109.25 130.091 112.738 133.665 117.042 133.665C121.345 133.665 124.833 130.091 124.833 125.682V109.715C124.833 108.51 124.833 108.885 117.042 108.885C109.25 108.885 109.25 108.885 109.25 109.715Z" fill="black"/>
<path d="M94.9581 50.6391C97.2011 52.1345 94.9581 50.6391 97.2572 52.1718C99.5564 54.471 99.5564 54.471 99.5564 54.471C100.17 55.3097 101.23 55.9206 101.484 56.9362C101.484 56.9362 101.488 56.9362 100.319 58.4707C98.2637 60.7283 99.0778 59.9558 98.2637 60.7698C96.7309 62.3026 97.5532 61.6734 96.7346 62.3024L63.7797 90.7914C62.4452 91.7905 64.5005 90.7914 62.8477 90.7914C64.1821 91.7905 61.195 90.7914 62.8477 90.7914L30.2784 63.2015C24.5995 57.5366 30.2784 63.2015 24.5995 57.5366C28.4315 54.471 28.4315 54.471 24.5995 57.5366C28.4315 54.471 24.5995 57.5366 28.4315 54.471C32.2635 51.4055 28.4315 54.471 32.2635 51.4055C33.7963 52.9383 31.4971 51.4055 33.7963 52.9383L62.8477 77.6305L94.9581 50.6391Z" fill="black"/>
<path d="M62.493 0.287773C64.5595 0.287773 63.4039 0.287773 68.0077 0.287773C68.0109 3.12244 68.0077 3.81551 68.0077 5.93281V38.3765L68.0107 69.7989C68.0107 71.9162 68.0142 69.7989 68.0084 78.2295C62.4981 78.2295 64.2165 78.2295 62.15 78.2295C60.0835 78.2295 62.15 78.2296 56.9882 78.1067C56.9882 70.1235 56.9886 77.7824 56.9882 69.7989L56.9886 38.3765V5.93281C56.9886 3.81551 56.9886 5.93281 56.9886 0.287773C62.493 0.287773 60.4265 0.287773 62.493 0.287773Z" fill="black"/>
</svg>
