<svg width="18" height="17" viewBox="0 0 18 17" fill="none" xmlns="http://www.w3.org/2000/svg">
<path d="M1.13365 0.37846L1.20929 0.290835C1.48666 0.0134703 1.92068 -0.0117379 2.22652 0.215189L2.31415 0.290835L9.05339 7.02972L15.7927 0.290835C16.0978 -0.0142589 16.5923 -0.0142589 16.8974 0.290835C17.2026 0.595929 17.2026 1.0906 16.8974 1.39569L10.1586 8.13493L16.8974 14.8742C17.1748 15.1515 17.2001 15.5856 16.9731 15.8914L16.8974 15.979C16.6202 16.2564 16.1861 16.2816 15.8803 16.0546L15.7927 15.979L9.05339 9.24014L2.31415 15.979C2.00905 16.2841 1.51439 16.2841 1.20929 15.979C0.904198 15.6739 0.904198 15.1793 1.20929 14.8742L7.94818 8.13493L1.20929 1.39569C0.931927 1.11832 0.906719 0.684304 1.13365 0.37846Z" fill="black"/>
</svg>
